<?xml version="1.0" encoding="utf-8"?>
<!-- Generator: Adobe Illustrator 28.1.0, SVG Export Plug-In . SVG Version: 6.00 Build 0)  -->
<svg version="1.1" id="Ebene_1" xmlns="http://www.w3.org/2000/svg" xmlns:xlink="http://www.w3.org/1999/xlink" x="0px" y="0px"
	 viewBox="0 0 955.5 399.8" style="enable-background:new 0 0 955.5 399.8;" xml:space="preserve">
<style type="text/css">
	.st0{fill:#FFFFFF;}
</style>
<g>
	<path d="M183.4,164.9c-2.7,17.4-5,33.4-7.8,49.2c-2,11-4.7,21.8-7.2,32.6c-5.1,21.5-19.4,31.6-40.7,33.1c-4.1,0.3-8.2,0.4-13,0.6
		c4.4-21.2-3.1-39.4-9.5-58c-12.2-35.7-24-71.6-35.9-107.4c-2-6-2.4-6.2-7.7-2.7c-19.5,12.8-41.7,2.1-43.9-21.2
		C15.8,72,26.2,55.9,44.5,49.9C60,44.8,76,44.9,92,46.5c16.7,1.7,33.4,4.3,50,6.4c25.6,3.2,50.4-0.6,75-7.9
		c18.9-5.6,38-10.4,56.1-15.3c0.7,0.2,0,0-0.7-0.2c0.1-0.4,0.1-0.9,0.2-1.3c5.9,0.9,11.9,1.8,17.8,2.9c10,1.9,20.1,3.2,29.8,6
		c16.2,4.7,25.6,23.5,20.3,38.7c-4.8,13.8-20.3,20.8-33.2,14.4c-3.3-1.6-6-5.1-8-8.3c-0.8-1.3,0.6-5,2.1-6.3c1-0.9,4.6-0.2,6,1
		c7.6,6.8,12.5,7.9,18.9,3.7c5.8-3.9,8.3-12.9,5.7-20.7c-3.6-10.9-15-19-28.7-18.4c-9.8,0.5-19.8,2.5-29.2,5.6
		c-14.9,4.8-29.2,11.1-43.8,16.6c-29.4,11-59.5,12-90,6c-4.7-0.9-9.5-1.6-14.3-2.5c-4.9-1-7.2,1.7-7.1,5.8
		c0.1,7.1-0.4,14.6,1.7,21.2c10.2,33.2,21.1,66.2,31.9,99.3c1.1,3.4,2.5,6.8,4.7,10.1c1.4-8.7,2.9-17.5,4.3-26.2
		c2.3-14.6,4.7-29.3,6.6-44c0.7-5.4,0.7-11,0.4-16.4c-0.3-6.3-3-11.5-8.9-14.7c-1.3-0.7-2-2.7-2.9-4.1c1.4-0.9,2.8-2.5,4.3-2.7
		c14.5-1.8,29.1-3.5,43.7-5c1.4-0.1,3.6,0.6,4.2,1.6c0.5,0.9-0.3,3.3-1.3,4.1c-6.7,5.6-6.9,12.7-4.4,20.1c7.5,22,15.3,44,23.1,65.9
		c1.8,5.1,4.1,10,7,14.7c1.1-13,1.9-26.1,3.3-39.1c2.4-23,4.2-46.2,13.1-67.9c8.1-19.9,21.7-33.9,43.9-37.2
		c5.2-0.8,10.9,0.4,16.1,1.6c2.1,0.5,3.7,3.3,6.1,5.6c-2,0.7-2.5,1-2.9,0.9c-14.4-3.5-23.7,4-31.2,14.6c-8.9,12.6-13.2,27.1-16.4,42
		c-7.2,33.5-10.4,67.4-11.5,101.6c-0.1,3.1-0.1,6.6,1.1,9.3c1.2,2.6,4,4.5,6.1,6.7c1.2,1.2,2.4,2.4,3.6,3.6
		c-1.4,1.2-2.6,3.1-4.3,3.5c-11.3,2.8-22.7,5.3-34,7.9c-3.9,0.9-7.7,2.1-11.6,2.8c-1.4,0.2-3-0.7-4.5-1.1c0.5-1.6,0.5-3.6,1.4-4.8
		c2.8-3.5,3.5-7.4,1.8-11.3C203.7,212.4,193.8,189.3,183.4,164.9z M123.2,273.3c0.6,0.3,1.2,0.7,1.7,1c1.9-2.4,4.7-4.6,5.6-7.4
		c1.3-3.8,2.2-8.4,1.4-12.2c-2.1-10.2-4.4-20.5-8.1-30.2c-15.5-40.7-29.7-81.9-41.6-123.8c-2.8-9.7-6.2-19.3-10.5-28.4
		c-3.9-8.3-11-13.3-20.6-13.5c-10.3-0.2-19.2,6.4-23.2,16.7c-4.3,11-1.9,23.3,5.7,30c7.4,6.5,18.6,5.6,24.5-1.9c6-7.7,4.4-21-3-26.1
		c-4.7-3.2-10.5-1.5-11.1,4.1c-0.5,4,1.3,8.3,2,12.4c0.3,1.9,0.3,3.8,0.5,5.6c-2-0.4-4.5-0.1-5.8-1.2C35,93.6,34.4,87,36,80.5
		c1.6-6.4,5.6-11.1,12.5-12.1c6.5-1,11.7,1.9,14.8,7.2c3,5.3,5.4,11,7.3,16.8c13.5,41.4,26.7,82.9,40.3,124.3
		C116.9,235.2,125.4,253.1,123.2,273.3z"/>
	<path d="M121,306c4.2,6.8,8.6,13,11.8,19.7c2,4.2,3.2,9.3,3.1,13.9c-0.3,12.5-11.9,21-27,20c2.8-1.4,5-2.3,7.1-3.6
		c6.5-3.9,11.2-9.1,11-17.2c-0.2-8.1-5-13.3-11.9-16.5c-11-5.2-22.5-5.6-34.1-2.3c-0.8,0.2-1.6,0.6-2.3,0.9c-6.6,3.1-9.9,8.1-9,13.4
		c0.9,5.3,5.6,8.5,13.9,8.5c-0.9-0.6-1.9-1-2.7-1.7c-4.2-4.3-3.5-9.6,2.1-11.6c10.7-3.8,21.4-3.2,31.1,3c5.3,3.4,5.5,8.1,0.9,12.5
		c-5.5,5.3-12.5,6.9-19.7,7.6c-19.5,1.7-38.3-5.4-44.6-30.2c-3.3-13-9.2-24.9-16.2-36.3c-4.4-7.2-7.7-14.9-7.5-23.5
		c0.3-14.4,12.3-26.3,28.5-27.6c6-0.5,12.4,0.3,18.1,2.1c7.2,2.3,9.3,8,8.3,15.5c-1.2,9.5-1.8,19.1-2.7,28.8c-5.3,0.6-6.2,0-6.4-5.9
		c-0.2-4.6,0-9.3,0-13.7c-2.7,0-6,0.3-9.2-0.1c-4.1-0.6-7.4-2.7-7.6-7.3c-0.1-4.5,3-7,7.2-7.6c3.2-0.5,6.6-0.1,10.5-1.1
		c-1.8-1-3.5-2.5-5.4-3c-10.1-2.5-19.3-0.3-26.8,6.8c-7.5,7.1-7.7,17.9-1.2,26.3c7.4,9.5,17.9,13.6,29.2,15.8
		c20.7,4.1,41.2,1.2,61.4-3.3c38.1-8.6,76.1-18.2,114.4-25.9c89.8-18.1,180.4-27.5,272.1-24.5c46.3,1.5,92.4,5.8,138.4,11.3
		c62.9,7.6,124.8,20.5,186.7,33.6c13.1,2.8,26.7,3.5,40.1,4c12,0.4,22.2-5,31.2-12.8c2.4-2.1,4.6-4.2,8-7.4
		c-0.7,3.6-0.9,6.1-1.6,8.5c-5.3,17.2-10.2,34.5-16.2,51.4c-6.9,19.7-33.1,28.3-50.7,16.9c-2.9-1.8-6.1-5.9-6-8.7
		c0.2-2.9,3.8-6.4,6.8-8.3c6.1-3.8,13.2-4.9,20.2-3.6c3,0.6,6.8,2.6,8.2,5.1c2,3.5-1.4,6.4-4.3,8.5c-0.6,0.5-1.3,0.9-2.1,1.5
		c6.3,1.1,13.2-2.7,15-8.3c1.8-5.6-0.7-10.7-6.7-13.9c-11.1-5.8-32.5-2.2-41.1,6.9c-7.9,8.4-6.8,20.4,2.8,26.8
		c3.5,2.4,7.7,3.8,11.4,5.6c-18.6,3.8-32.5-10.9-26.9-29.2c2.3-7.4,5.4-14.6,8.4-22.5c-2.8-0.9-5.2-1.8-7.7-2.6
		c-57-18.3-115.4-29.3-174.7-36.5c-63.2-7.7-126.6-13-190.4-12.5c-89.8,0.7-178.4,11.8-265.6,33.3c-24.7,6.1-49.3,12.6-73.9,18.9
		C124.9,304.7,123,305.4,121,306z"/>
	<path d="M857.5,173c11.2-9.9,20.7-19.1,27-31.1c3-5.8,3.8-11.6-1.4-17c-2.6-2.7-1.3-5.9,2.4-5.8c13,0.2,25,3.7,34.4,13.4
		c3.5,3.6,2.7,5.4-1.9,7.8c-3.2,1.7-6.5,3.6-9.1,6.1c-9.3,9.1-18.2,18.5-26.1,26.6c6.6,15.6,12.6,30.3,18.9,44.9
		c2,4.7,4.4,9.3,7.1,13.7c2.9,4.8,7.5,7.4,13,8.4c1.6,0.3,3.9,1.3,4.3,2.5c0.4,1.2-0.6,3.7-1.8,4.6c-6,4.4-11.7,9.5-18.4,12.5
		c-10.1,4.6-19,0.8-23.3-9.5c-3.1-7.3-4.8-15.2-7.2-22.8c-3.2-10-6.2-20-9.8-29.8c-0.7-1.9-3.3-3.1-5-4.6c-1.3,2-3.5,4-3.6,6
		c-0.6,10.3-0.6,20.6-0.7,30.9c0,4.4,1.8,8,5.5,10.6c1.3,0.9,1.8,2.9,2.7,4.4c-1.6,0.9-3.3,2.7-4.8,2.6c-13.3-0.6-26.6-1.5-39.9-2.6
		c-1.4-0.1-3.1-1.7-3.9-3.1c-0.3-0.6,1-2.9,2-3.4c6.5-3.1,8.2-9,8.7-15.3c1.4-17.1,2.8-34.2,3.7-51.3c1.3-25.1,2.3-50.3,3.3-75.4
		c0.3-7.2,0.7-14.4-7.2-18.8c-2.5-1.4-1.4-3.9,1-5c2.3-0.9,4.8-1.6,7.2-1.9c10.1-1,20.2-2,30.3-2.6c1.9-0.1,3.9,1.7,5.9,2.6
		c-1,1.7-2.2,3.4-3,5.2c-1.8,3.8-4.8,7.5-5.1,11.4c-1.8,21.9-2.9,43.9-4.2,65.8C858.1,159.2,857.9,165.3,857.5,173z"/>
	<path d="M517.3,207.5c-4.6,2.2-9.7,5.7-15.3,7.1c-13.5,3.4-24.7-1.8-33.3-12.1c-12.5-15-15.8-32.9-13.3-51.7
		c1.2-9,4.4-18.1,8.3-26.4c8-16.9,30.8-29.2,53.3-14.9c0.2-0.8,0.6-1.5,0.7-2.2c0.1-10.7,0.2-21.3,0.1-32c0-4.8-1.4-9.1-5.8-12.1
		c-3.2-2.2-2.5-5,1-5.8c11.8-2.5,23.8-4.7,35.7-6.7c1.4-0.2,3.9,1,4.4,2.1c0.5,1.1-0.9,3.1-1.5,4.7c-1.6,4.1-4.6,8.1-4.7,12.2
		c-1,37.1-1.6,74.3-2,111.4c-0.1,5.1,0.9,10.3,1.8,15.4c0.9,5.5,3.1,10,8.8,12.4c3.3,1.4,3.1,4,0.1,5.6c-9.3,5.1-19.3,7.2-29.2,2.5
		C522.6,215.4,520.2,210.8,517.3,207.5z M516.6,160.2c0.1,0,0.1,0,0.2,0c0-4.2,0-8.3,0-12.5c0-4.2,0.1-8.3-0.2-12.5
		c-0.5-9.3-5.5-16-12.5-17.2c-6.4-1.1-12.8,3.6-16.2,12.3c-5.2,13.5-5.6,27.5-2.5,41.3c1.6,7.1,4.7,14.2,8.5,20.5
		c3.4,5.6,9.2,6.9,14.4,5c5.3-1.9,8.2-6.3,8.3-12.9C516.7,176.2,516.6,168.2,516.6,160.2z"/>
	<path d="M620.2,176.9c-4.1,11.8-7.9,22.7-11.8,33.7c-4,11.5-6.1,12.6-18.2,10.2c-4-0.8-5.5-3.6-6.4-6.9
		c-5.2-19.4-10.4-38.9-15.2-58.4c-2.5-10-3.7-20.3-6.3-30.3c-1.2-4.6-4.3-8.7-6.6-13c-0.6-1.3-1.9-3-1.5-3.8
		c0.6-1.2,2.5-2.3,3.8-2.4c12-0.6,24-1.1,36-1.4c1.2,0,2.5,1.1,3.8,1.7c-0.6,1.3-0.9,2.9-1.8,3.7c-3.5,2.8-5.7,6.2-5.5,10.7
		c0.9,20.9,5.9,41,11.5,61.2c4.9-15.4,12.7-30,11-46.9c-0.4-3.9,0.9-4.7,4.5-4c5.5,1.2,11.1,2.2,16.7,2.9c3.5,0.4,4.7,1.5,4.4,5.3
		c-0.4,4.9-0.1,10,1,14.8c2.4,10.8,5.5,21.5,8.3,32.2c0.5,0,1.1,0,1.6,0c1.8-7.4,4-14.7,5.3-22.2c2.1-12.3,3.8-24.6,5.2-37
		c0.7-6.7-0.4-13-7.5-16.6c-0.9-0.5-2-2.4-1.7-3.1c0.5-1.1,2-2.5,3.2-2.5c11.3-0.5,22.6-0.8,34-1c1,0,2.6,1.2,2.9,2.1
		c0.2,0.9-0.6,2.8-1.5,3.3c-6.6,3.8-8.4,10.4-10,17.1c-7.3,29.2-14.2,58.5-22.1,87.5c-3.7,13.5-1.6,11.1-15.5,10.7
		c-5.2-0.1-8-2-9.4-7.3c-3.2-12-7.1-23.9-10.7-35.9C621.4,180.2,620.9,179,620.2,176.9z"/>
	<path d="M322.5,105.7c16.2,0.2,28.5,6.4,37.6,18.8c16.8,23.1,17.9,58.8,2.6,81.5c-19.9,29.4-60.9,29.7-80-0.2
		c-15.1-23.7-15.9-49.1-3-74.1C288.7,114.4,304,106.3,322.5,105.7z M345.4,173.3C345,173.3,345.7,173.4,345.4,173.3
		c-0.3-4.3-0.4-8.7-0.9-12.9c-1.4-11.3-3.7-22.4-10.5-31.9c-9-12.6-23.3-11.4-29.2,2.9c-2.6,6.2-4.1,13.1-4.5,19.8
		c-1.2,18.4,1.5,36.2,11.3,52.3c3.5,5.8,8.2,10.6,15.5,10c7.5-0.6,12-6,13.8-12.7C343.2,191.8,343.4,182.5,345.4,173.3z"/>
	<path d="M765,175.9c0,5.9,0.9,16.6,5.6,26.6c8.2,17.3,25.1,20.1,37.1,8.8c1.1-1.1,3.4-1,5.1-1.4c0.2,2.2,1.1,4.6,0.4,6.5
		c-4.6,13.4-19.5,22.7-34.2,22c-14.3-0.7-24.9-7.8-32.5-19.4c-15.4-23.4-14.5-62.5,1.9-85.3c12.7-17.8,33.2-24.7,51.7-17.6
		c12.7,4.9,19.4,16.5,16.6,28.8c-2.4,11-13.8,18.1-24.4,14.9c-2.1-0.6-3.8-2.8-5.6-4.2c1.2-1.6,2.3-3.5,3.8-4.7
		c5.4-4.2,7.9-10.4,6.3-16.2c-1.5-5.8-6.3-9.1-11.7-6.7c-4.3,1.9-8.5,5.3-11.2,9.2C767,147.1,765.5,158.9,765,175.9z"/>
	<path d="M408.7,110.5c5.7-3.3,10.8-7.3,16.5-9.5c7.5-2.9,15-1.1,20.7,4.8c6.7,6.9,8.5,15.4,6.2,24.5c-2.5,9.6-8.6,16.1-18.6,18.1
		c-2.2,0.5-4.7,0.3-6.9-0.4c-4.3-1.2-4.9-3.9-1.5-6.7c3.9-3.3,6.9-7.4,6.1-12.4c-0.5-3.2-2.6-6.9-5.1-8.8c-3.2-2.4-7-0.4-9.9,2.3
		c-4.3,4.1-6.2,9.6-5.5,15c2.5,21.1,5.5,42.2,8.6,63.2c0.7,4.7,4.1,7.8,8.2,10.1c1.4,0.8,2.2,2.8,3.3,4.2c-1.4,0.9-2.8,2.5-4.3,2.6
		c-13.8,1.1-27.6,2.1-41.4,2.9c-1.6,0.1-3.4-1.4-5.1-2.2c0.6-1.4,0.9-3.2,2-4.1c4.1-3.4,5.8-7.8,5.6-12.8
		c-0.7-17.1-1.5-34.3-2.6-51.4c-0.6-9.1-2.2-18.2-3.4-27.3c-0.7-5.1-2.4-9.6-7.4-12.3c-2.9-1.6-2.7-4.2,0.1-5.3
		c8-3.2,16-6.6,24.3-8.4c6.8-1.5,8.8,1,9.5,8C408.4,106.9,408.6,109,408.7,110.5z"/>
	<path d="M696.5,167.8c0-10.7,0-21.3,0-32c0-5.3-0.7-10.2-5.5-13.7c-2.6-1.9-2-4.2,0.8-5.4c10.1-4.3,20.5-7.2,31.5-6.1
		c5.5,0.5,6.2,2.8,4.1,7.7c-1.8,4.3-3.4,9.2-3.5,13.8c-0.7,25.1-1,50.3-1.2,75.5c-0.1,6.7,0.5,13.4,7.4,17.5
		c0.8,0.5,1.5,2.4,1.2,3.4c-0.3,1-1.8,2-2.9,2.2c-2.1,0.4-4.3,0.2-6.5,0.1c-10.7-0.4-21.3-0.8-32-1.5c-1.9-0.1-3.6-1.7-5.4-2.6
		c1.1-1.6,2-3.6,3.4-4.8c3.9-3,5.4-7.1,5.7-11.7c0.9-14.1,1.7-28.3,2.5-42.4C696.3,167.9,696.4,167.8,696.5,167.8z"/>
	<path d="M637.8,313.5c5.1-7.2,9.8-13.8,14.5-20.4c2.2-3.2,10.8-5.2,13.9-3c0.8,0.6,1.3,2.2,1.3,3.4c0.1,16.8,0,33.6,0.1,50.5
		c0,2.9-1.2,3.6-3.8,3.8c-9.9,0.6-9.9,0.7-9.8-9.2c0-8.1,0-16.2-1-24.6c-4,5.4-8.1,10.7-12,16.2c-2.4,3.4-4.2,3.7-6.6,0.1
		c-3.8-5.6-7.9-10.9-12.9-17.7c0,10.9-0.4,20.3,0.1,29.7c0.3,5.7-2.7,5.7-6.7,5.6c-4-0.1-7.3,0.5-7.2-5.7c0.4-15.6,0.3-31.3,0.1-47
		c-0.1-4.4,1.3-5.5,5.7-5.7c5.7-0.3,9.2,1.5,12.1,6.4C629.1,301.8,633.5,307.3,637.8,313.5z"/>
	<path d="M467.4,318.5c0-8.3,0.1-16.6-0.1-24.9c-0.1-3.1,1-4.1,4-4c7.1,0.2,14.3-0.2,21.4,0.3c15.8,1,26.5,13.2,26.1,29.5
		c-0.4,16.1-11.8,28-27.4,28.4c-6.6,0.2-13.3-0.1-20,0.1c-3.4,0.1-4.3-1.3-4.2-4.4C467.5,335.1,467.4,326.8,467.4,318.5
		C467.4,318.5,467.4,318.5,467.4,318.5z M481.6,301.5c0,11.7,0,22.9,0,34.3c8,0.6,15.7,1.1,20.4-6.6c4.1-6.8,4.2-14,0.1-20.9
		C497.4,300.6,489.8,301,481.6,301.5z"/>
	<path d="M444.9,347.7c-5,0-9,0.5-12.8-0.2c-1.5-0.3-3.2-3.1-3.7-5.1c-1.3-5-3.9-7.3-9.2-6.3c-1.6,0.3-3.4,0.3-5,0
		c-7-1-12.3,0.3-13.7,8.5c-0.2,1.2-2.6,2.8-4.2,3c-3.3,0.5-6.8,0.1-11,0.1c2.3-6,4.2-10.9,6.1-15.8c5-12.7,10.1-25.3,14.9-38.1
		c1.2-3.2,2.9-4.2,6.3-4.2c9.5,0.1,9.5-0.1,13,8.8C431.9,314.4,438.1,330.3,444.9,347.7z M408.2,324.6c4.9,0,9,0,13.9,0
		c-2.4-6.2-4.6-11.9-7.2-18.7C412.5,312.9,410.4,318.6,408.2,324.6z"/>
	<path d="M242.8,347.7c6.4-16.4,12.2-31.4,18-46.4c0.3-0.8,0.6-1.5,0.9-2.3c3.9-10,4.5-10.4,15.3-9.2c1.2,0.1,2.9,1.2,3.3,2.2
		c7.1,17.9,14.1,35.8,21.1,53.8c0.1,0.3-0.1,0.6-0.3,1.9c-3.7,0-7.7,0.5-11.5-0.2c-1.6-0.3-3.2-3.1-3.7-5.1c-1.3-5-3.7-7.5-9.1-6.4
		c-1.4,0.3-3,0.2-4.5,0c-7.3-1-13.1,0-14.3,8.9c-0.1,1.1-2.2,2.5-3.5,2.6C250.9,347.9,247.2,347.7,242.8,347.7z M279.5,324.8
		c-2.4-6.3-4.5-12-7-18.9c-2.5,7-4.5,12.7-6.7,18.9C270.6,324.8,274.6,324.8,279.5,324.8z"/>
	<path d="M557.4,301.2c0,4.1,0,7.5,0,11.4c5,0,9.6,0,14.2,0c7.5-0.1,7.5-0.1,7.5,5.6c0,5.9,0,5.9-7.3,5.9c-4.2,0-8.3,0-12.5,0
		c-0.5,0-1,0.2-1.9,0.4c0,3.6,0,7.4,0,11.6c7.1,0,14,0.3,21-0.1c4.9-0.3,4.9,2.4,4.9,5.9c0,3.4,0.2,6.1-4.8,6
		c-10.2-0.4-20.3-0.2-30.5,0c-3.3,0.1-4.8-0.7-4.7-4.4c0.2-16.5,0.1-33,0-49.5c0-3.2,1-4.4,4.3-4.4c10.2,0.1,20.3,0.2,30.5,0
		c4.7-0.1,3.9,3,3.9,5.7c0,2.8,1,6.2-4.1,6C571.1,301,564.3,301.2,557.4,301.2z"/>
	<path d="M361.3,306.1c-11.7-6.6-20.5-6.1-26.4,1.3c-5.2,6.6-5,17.2,0.6,23.6c5.8,6.7,14.8,6.8,25.8,0.3c0.3,0.1,0.7,0.2,0.9,0.5
		c6.7,8.6,5.9,11.4-4.4,15.1c-12.6,4.6-27.2,0.8-34.8-9.3c-7.9-10.4-8.1-25.6-0.4-36.5c7.3-10.3,21.4-15.2,33.8-10.7
		C367.1,294.1,367.8,295.2,361.3,306.1z"/>
	<path d="M688.6,289.9c5.3,0,9.1-0.3,12.9,0.1c1.5,0.2,3.2,1.6,4,2.9c3.5,5.6,6.7,11.5,10.4,18c3.3-5.7,6.5-10.6,9-15.9
		c1.9-4,4.5-5.7,9-5.1c2.4,0.3,4.9,0.1,8.3,0.1c-1,2.3-1.6,3.9-2.5,5.4c-4.6,7.9-9.5,15.7-13.8,23.8c-1.8,3.3-2.7,7.3-3.2,11.1
		c-0.5,4.4-0.3,9-0.1,13.5c0.1,2.9-0.7,4.2-3.9,4.2c-11.8-0.3-10.4,1.2-9.8-9.6c0.6-10.2-2-18.8-7.7-27
		C696.9,304.8,693.3,297.8,688.6,289.9z"/>
	<path d="M706,37.3c2,16.6,8.5,29.4,27.7,31.8c-18.3,2.4-25.3,14.1-27.1,30.9c-3.4-7.6-5.1-15.5-9.9-20.7c-4.7-5.1-12.5-7.4-17.2-10
		c4.6-2.8,12.5-5.4,17.1-10.8C701.3,53.1,702.8,44.9,706,37.3z"/>
	<path d="M191.8,318.9c8.6,0,17.3,0.1,25.9,0c2.8,0,5.3,0.4,5.4,3.6c0.2,3.7-2.7,4-5.5,4c-17.4,0-34.9,0-52.3,0
		c-2.7,0-5.4-0.3-5.4-3.6c-0.1-3.6,2.6-4,5.6-4C174.2,319,183,318.9,191.8,318.9C191.8,318.9,191.8,318.9,191.8,318.9z"/>
	<path d="M786.9,318.9c7.5,0,15-0.2,22.4,0.2c1.8,0.1,4.6,1.8,4.9,3.3c0.7,3.2-2,4.1-4.7,4.2c-15.1,0-30.2,0.1-45.3-0.2
		c-1.6,0-3.1-2.5-4.6-3.8c1.7-1.2,3.3-3.3,5-3.4C772,318.7,779.5,318.9,786.9,318.9C786.9,318.9,786.9,318.9,786.9,318.9z"/>
	<path class="st0" d="M123.2,273.3c2.2-20.3-6.3-38.1-12.4-56.5c-13.6-41.4-26.8-82.9-40.3-124.3c-1.9-5.8-4.3-11.6-7.3-16.8
		c-3.1-5.4-8.3-8.2-14.8-7.2c-6.9,1-10.9,5.8-12.5,12.1c-1.6,6.6-1,13.1,4.5,17.9c1.3,1.1,3.9,0.8,5.8,1.2c-0.1-1.9-0.2-3.8-0.5-5.6
		c-0.7-4.2-2.4-8.4-2-12.4c0.7-5.6,6.5-7.4,11.1-4.1c7.4,5.2,9,18.5,3,26.1c-5.8,7.5-17.1,8.4-24.5,1.9c-7.6-6.7-10-19-5.7-30
		c4-10.3,12.9-16.9,23.2-16.7c9.6,0.2,16.7,5.2,20.6,13.5c4.3,9.1,7.7,18.7,10.5,28.4c12,41.9,26.1,83.1,41.6,123.8
		c3.7,9.7,6,20,8.1,30.2c0.8,3.8-0.1,8.4-1.4,12.2c-0.9,2.8-3.7,5-5.6,7.4C124.4,274,123.8,273.7,123.2,273.3z"/>
	<path class="st0" d="M516.6,160.2c0,8,0.1,16,0,24c-0.1,6.6-3,11-8.3,12.9c-5.2,1.8-11,0.6-14.4-5c-3.7-6.3-6.9-13.3-8.5-20.5
		c-3.1-13.8-2.7-27.8,2.5-41.3c3.4-8.7,9.7-13.4,16.2-12.3c7,1.2,12,7.9,12.5,17.2c0.2,4.2,0.1,8.3,0.2,12.5c0,4.2,0,8.3,0,12.5
		C516.7,160.2,516.7,160.2,516.6,160.2z"/>
	<path class="st0" d="M345.4,173.3c-0.5,9.3-2.1,18.5-4.5,27.4c-1.8,6.8-6.2,12.1-13.8,12.7c-7.3,0.6-12-4.2-15.5-10
		c-9.8-16.1-12.4-33.9-11.3-52.3c0.4-6.7,1.9-13.6,4.5-19.8c5.9-14.3,20.2-15.6,29.2-2.9c6.8,9.5,9.1,20.6,10.5,31.9
		C345,164.7,345.1,169,345.4,173.3C345.7,173.4,345,173.3,345.4,173.3z"/>
	<path class="st0" d="M481.6,301.5c8.2-0.5,15.8-0.9,20.5,6.8c4.1,6.8,4,14.1-0.1,20.9c-4.7,7.7-12.4,7.2-20.4,6.6
		C481.6,324.4,481.6,313.2,481.6,301.5z"/>
	<path class="st0" d="M408.2,324.6c2.2-6,4.2-11.7,6.8-18.7c2.6,6.8,4.8,12.5,7.2,18.7C417.3,324.6,413.1,324.6,408.2,324.6z"/>
	<path class="st0" d="M279.5,324.8c-5,0-8.9,0-13.8,0c2.2-6.1,4.2-11.8,6.7-18.9C275,312.9,277.2,318.5,279.5,324.8z"/>
</g>
</svg>
